HIERARCHY
ROOT Hips
{
  OFFSET 5.72205e-005 65.662 3.42586
  CHANNELS 6 Xposition Yposition Zposition Zrotation Xrotation Yrotation
  JOINT Chest
  {
    OFFSET 0 8.7983 -4.7612
    CHANNELS 3 Zrotation Xrotation Yrotation
    JOINT Chest2
    {
      OFFSET 0 8.0291 0.4195
      CHANNELS 3 Zrotation Xrotation Yrotation
      JOINT Chest3
      {
        OFFSET 0 9.9351 -2.2114
        CHANNELS 3 Zrotation Xrotation Yrotation
        JOINT Neck
        {
          OFFSET 0 22.3885 -0.4656
          CHANNELS 3 Zrotation Xrotation Yrotation
          JOINT Head
          {
            OFFSET -0.0001 12.643 3.4389
            CHANNELS 3 Zrotation Xrotation Yrotation
            End Site
            {
              OFFSET 0.0001 17.6655 0.5274
            }
          }
        }
        JOINT LeftCollar
        {
          OFFSET 2.2603 21.606 7.4023
          CHANNELS 3 Zrotation Xrotation Yrotation
          JOINT LeftShoulder
          {
            OFFSET 13.5163 -1.1332 -5.0146
            CHANNELS 3 Zrotation Xrotation Yrotation
            JOINT LeftElbow
            {
              OFFSET -0.0995 -28.05 -0.2431
              CHANNELS 3 Zrotation Xrotation Yrotation
              JOINT LeftWrist
              {
                OFFSET 0.0679 -23.3996 -0.1402
                CHANNELS 3 Zrotation Xrotation Yrotation
                JOINT LeftFinger1
                {
                  OFFSET 0.7932 -9.069 2.5189
                  CHANNELS 3 Zrotation Xrotation Yrotation
                  JOINT LeftFinger11
                  {
                    OFFSET -0.8272 -3.3923 0.5977
                    CHANNELS 3 Zrotation Xrotation Yrotation
                    JOINT LeftFinger12
                    {
                      OFFSET -0.5649 -2.3158 0.4082
                      CHANNELS 3 Zrotation Xrotation Yrotation
                      End Site
                      {
                        OFFSET -0.4919 -1.6479 0.2673
                      }
                    }
                  }
                }
                JOINT LeftFinger2
                {
                  OFFSET 0.9159 -9.2044 0.2193
                  CHANNELS 3 Zrotation Xrotation Yrotation
                  JOINT LeftFinger21
                  {
                    OFFSET 0.0117 -4.1944 -0.0248
                    CHANNELS 3 Zrotation Xrotation Yrotation
                    JOINT LeftFinger22
                    {
                      OFFSET 0.0071 -2.3249 -0.0142
                      CHANNELS 3 Zrotation Xrotation Yrotation
                      End Site
                      {
                        OFFSET -0.1475 -2.0882 0.0028
                      }
                    }
                  }
                }
                JOINT LeftFinger3
                {
                  OFFSET 0.6113 -8.7231 -2.0637
                  CHANNELS 3 Zrotation Xrotation Yrotation
                  JOINT LeftFinger31
                  {
                    OFFSET -0.1927 -3.8059 -0.2383
                    CHANNELS 3 Zrotation Xrotation Yrotation
                    JOINT LeftFinger32
                    {
                      OFFSET -0.1091 -2.1688 -0.1362
                      CHANNELS 3 Zrotation Xrotation Yrotation
                      End Site
                      {
                        OFFSET -0.2358 -1.9176 -0.0906
                      }
                    }
                  }
                }
                JOINT LeftFinger4
                {
                  OFFSET -0.6151 -8.0947 -3.5641
                  CHANNELS 3 Zrotation Xrotation Yrotation
                  JOINT LeftFinger41
                  {
                    OFFSET -0.4882 -2.341 -0.6462
                    CHANNELS 3 Zrotation Xrotation Yrotation
                    JOINT LeftFinger42
                    {
                      OFFSET -0.3575 -1.7167 -0.4742
                      CHANNELS 3 Zrotation Xrotation Yrotation
                      End Site
                      {
                        OFFSET -0.4187 -1.5237 -0.3496
                      }
                    }
                  }
                }
                JOINT LeftFinger0
                {
                  OFFSET -1.42 -1.8761 1.4223
                  CHANNELS 3 Zrotation Xrotation Yrotation
                  JOINT LeftFinger01
                  {
                    OFFSET -1.1471 -3.4929 2.6334
                    CHANNELS 3 Zrotation Xrotation Yrotation
                    JOINT LeftFinger02
                    {
                      OFFSET -0.823 -2.3 1.6571
                      CHANNELS 3 Zrotation Xrotation Yrotation
                      End Site
                      {
                        OFFSET -0.5822 -1.6914 1.1582
                      }
                    }
                  }
                }
              }
            }
          }
        }
        JOINT RightCollar
        {
          OFFSET -2.2603 21.606 7.4023
          CHANNELS 3 Zrotation Xrotation Yrotation
          JOINT RightShoulder
          {
            OFFSET -13.5187 -1.1334 -5.0155
            CHANNELS 3 Zrotation Xrotation Yrotation
            JOINT RightElbow
            {
              OFFSET 0.0994 -28.0499 -0.2431
              CHANNELS 3 Zrotation Xrotation Yrotation
              JOINT RightWrist
              {
                OFFSET -0.0679 -23.3996 -0.1402
                CHANNELS 3 Zrotation Xrotation Yrotation
                JOINT RightFinger1
                {
                  OFFSET -0.7932 -9.0691 2.5189
                  CHANNELS 3 Zrotation Xrotation Yrotation
                  JOINT RightFinger11
                  {
                    OFFSET 0.8272 -3.3923 0.5977
                    CHANNELS 3 Zrotation Xrotation Yrotation
                    JOINT RightFinger12
                    {
                      OFFSET 0.565 -2.3158 0.4082
                      CHANNELS 3 Zrotation Xrotation Yrotation
                      End Site
                      {
                        OFFSET 0.4919 -1.6479 0.2673
                      }
                    }
                  }
                }
                JOINT RightFinger2
                {
                  OFFSET -0.916 -9.2044 0.2193
                  CHANNELS 3 Zrotation Xrotation Yrotation
                  JOINT RightFinger21
                  {
                    OFFSET -0.0117 -4.1944 -0.0248
                    CHANNELS 3 Zrotation Xrotation Yrotation
                    JOINT RightFinger22
                    {
                      OFFSET -0.0071 -2.3249 -0.0142
                      CHANNELS 3 Zrotation Xrotation Yrotation
                      End Site
                      {
                        OFFSET 0.1475 -2.0882 0.0028
                      }
                    }
                  }
                }
                JOINT RightFinger3
                {
                  OFFSET -0.6113 -8.7231 -2.0637
                  CHANNELS 3 Zrotation Xrotation Yrotation
                  JOINT RightFinger31
                  {
                    OFFSET 0.1927 -3.8059 -0.2383
                    CHANNELS 3 Zrotation Xrotation Yrotation
                    JOINT RightFinger32
                    {
                      OFFSET 0.1091 -2.1688 -0.1362
                      CHANNELS 3 Zrotation Xrotation Yrotation
                      End Site
                      {
                        OFFSET 0.2358 -1.9176 -0.0906
                      }
                    }
                  }
                }
                JOINT RightFinger4
                {
                  OFFSET 0.6151 -8.0947 -3.564
                  CHANNELS 3 Zrotation Xrotation Yrotation
                  JOINT RightFinger41
                  {
                    OFFSET 0.4882 -2.341 -0.6462
                    CHANNELS 3 Zrotation Xrotation Yrotation
                    JOINT RightFinger42
                    {
                      OFFSET 0.3574 -1.7166 -0.4742
                      CHANNELS 3 Zrotation Xrotation Yrotation
                      End Site
                      {
                        OFFSET 0.4187 -1.5237 -0.3496
                      }
                    }
                  }
                }
                JOINT RightFinger0
                {
                  OFFSET 1.4199 -1.8761 1.4221
                  CHANNELS 3 Zrotation Xrotation Yrotation
                  JOINT RightFinger01
                  {
                    OFFSET 1.1472 -3.4929 2.6336
                    CHANNELS 3 Zrotation Xrotation Yrotation
                    JOINT RightFinger02
                    {
                      OFFSET 0.8229 -2.3 1.6571
                      CHANNELS 3 Zrotation Xrotation Yrotation
                      End Site
                      {
                        OFFSET 0.5822 -1.6914 1.1582
                      }
                    }
                  }
                }
              }
            }
          }
        }
      }
    }
  }
  JOINT RightHip
  {
    OFFSET -9.412 3.9771 -0.7758
    CHANNELS 3 Zrotation Xrotation Yrotation
    JOINT RightKnee
    {
      OFFSET -0.7531 -40.938 0
      CHANNELS 3 Zrotation Xrotation Yrotation
      JOINT RightAnkle
      {
        OFFSET 0 -40.1986 0
        CHANNELS 3 Zrotation Xrotation Yrotation
        JOINT RightToe
        {
          OFFSET 0 -4.4182 9.239
          CHANNELS 3 Zrotation Xrotation Yrotation
          End Site
          {
            OFFSET 0 0 6.1981
          }
        }
      }
    }
  }
  JOINT LeftHip
  {
    OFFSET 9.4119 3.9773 -0.7758
    CHANNELS 3 Zrotation Xrotation Yrotation
    JOINT LeftKnee
    {
      OFFSET 0.7532 -40.9383 0
      CHANNELS 3 Zrotation Xrotation Yrotation
      JOINT LeftAnkle
      {
        OFFSET 0 -40.1986 0
        CHANNELS 3 Zrotation Xrotation Yrotation
        JOINT LeftToe
        {
          OFFSET 0 -4.4182 9.239
          CHANNELS 3 Zrotation Xrotation Yrotation
          End Site
          {
            OFFSET 0 0 6.1981
          }
        }
      }
    }
  }
}
MOTION
Frames:	4
Frame Time:	0.0333333
5.72205e-005 65.662 3.42586 0 0 -0 0 0 -0 0 0 -0 0 0 -0 0 0 -0 0 0 -0 0 0 -12.5014 88.1196 14.2451 10.6914 -0.00160068 -0.00239207 0.000740045 -8.4365e-005 7.00714e-005 -9.52055e-007 9.93923e-017 -1.98785e-016 -1.59028e-015 9.93923e-017 -5.96354e-016 -1.59028e-015 -9.93923e-017 -5.96354e-016 -1.59028e-015 9.93923e-017 -1.98785e-016 -1.59028e-015 -0.0128176 0.00232552 8.52707e-005 9.93923e-017 5.96354e-016 -0 9.93923e-017 -1.98785e-016 -1.59028e-015 -0.0160551 0.00299681 0.000857156 -2.48481e-016 0 3.18055e-015 9.93923e-017 -1.98785e-016 -1.59028e-015 -0.0125865 0.0031206 0.00282719 0 1.98785e-016 -0 9.93923e-017 -1.98785e-016 -1.59028e-015 9.93923e-017 -5.96354e-016 -1.59028e-015 -9.93923e-017 -5.96354e-016 -1.59028e-015 -0.865644 0.16582 7.03859 -88.0329 10.2057 -10.5567 0.0015593 -0.00248883 -0.000788628 7.87605e-005 4.10553e-005 1.24965e-005 -3.97569e-016 -7.95139e-016 3.18055e-015 -1.98785e-016 -3.97569e-016 3.18055e-015 -1.98785e-016 0 3.18055e-015 -3.97569e-016 -7.95139e-016 3.18055e-015 0.0129473 0.00231697 -8.70038e-005 9.93923e-017 -7.95139e-016 1.59028e-015 -3.97569e-016 -7.95139e-016 3.18055e-015 0.0163314 0.00303369 -0.000872333 3.97569e-016 7.95139e-016 -3.18055e-015 -3.97569e-016 -7.95139e-016 3.18055e-015 0.0145763 0.00367772 -0.00326275 9.93923e-017 -3.97569e-016 -0 -3.97569e-016 -7.95139e-016 3.18055e-015 -1.98785e-016 -3.97569e-016 3.18055e-015 -1.98785e-016 0 3.18055e-015 3.42482 1.32465 -0.0626183 0.000117508 0.717283 0.000978199 -3.4257 -2.04197 -0.0604716 6.47761e-025 0 -0 -3.42483 1.34017 0.0627307 -0.000193936 0.682302 -0.0013703 3.42574 -2.02253 0.0595886 -8.45714e-024 0 -7.40531e-025 
-6.31276 14.1621 -28.789 -66.6651 65.2858 -0.00308352 2.19073 -1.30014 -0.551619 4.37061 -2.62037 -1.05352 4.37063 -2.62037 -1.05352 -9.18183 3.47868 5.56282 -0.0416902 4.72111 0.0288289 50.4216 23.5703 -53.9553 111.841 -20.5565 23.3718 -12.9585 -41.0243 22.5771 33.2899 -32.5307 61.474 1.59028e-015 1.11319e-014 -0 1.59028e-015 6.36111e-015 6.36111e-015 -3.18055e-015 4.77083e-015 -6.36111e-015 1.59028e-015 1.11319e-014 -0 -0.0127957 0.00231357 8.8497e-005 -5.29799e-007 -1.51909e-005 -3.48921e-007 1.59028e-015 1.11319e-014 -0 -0.0160827 0.00297601 0.00087054 6.51383e-006 -3.81622e-006 -2.63618e-006 1.59028e-015 1.11319e-014 -0 -0.0125407 0.00306417 0.00282708 -3.18055e-015 -1.59028e-015 3.18055e-015 1.59028e-015 1.11319e-014 -0 1.59028e-015 6.36111e-015 6.36111e-015 -3.18055e-015 4.77083e-015 -6.36111e-015 4.82006 -6.87345 21.5169 -26.9003 6.09744 -19.9224 -16.2049 -51.6216 -61.0205 66.2067 59.3583 -16.586 2.86975e-007 -1.85958e-006 -4.64408e-006 -1.40092e-005 -1.30099e-006 -9.36183e-006 -3.18055e-015 -7.78991e-008 -6.36111e-015 2.86975e-007 -1.85958e-006 -4.64408e-006 0.0129819 0.00232366 -9.68137e-005 4.96065e-007 -1.32152e-007 -1.44011e-006 2.86975e-007 -1.85958e-006 -4.64408e-006 0.0163264 0.00303825 -0.000877838 2.8759e-007 -2.84215e-006 -4.64409e-006 2.86975e-007 -1.85958e-006 -4.64408e-006 0.0145871 0.00367779 -0.00327241 -1.59028e-015 -1.32152e-007 3.18055e-015 2.86975e-007 -1.85958e-006 -4.64408e-006 -1.40092e-005 -1.30099e-006 -9.36183e-006 -3.18055e-015 -7.78991e-008 -6.36111e-015 -5.5621 -18.0105 -9.53722 26.4811 43.1858 -25.0187 -11.7055 22.4729 7.84069 -3.13735e-006 -5.05667e-006 2.12045e-006 -1.31197 -23.3394 -0.610763 -4.01207 0.0261787 1.96738 6.03454 20.4907 -0.408795 -5.25612e-006 -4.34373e-006 4.59308e-006 
-2.6157 -8.54282 -41.2476 83.3053 85.8414 -179.974 3.12514 -1.73343 -1.17256 6.2186 -3.52785 -2.2504 6.2186 -3.52784 -2.25041 -13.4888 5.00775 8.11734 0.00130923 6.78058 -0.0930198 82.4999 23.7967 -74.6593 119.379 -36.6217 27.565 -24.109 -58.5169 26.679 50.4348 -46.6684 90.6199 1.59028e-015 3.18055e-015 -0 0 3.18055e-015 -0 3.53113e-031 6.36111e-015 -3.18055e-015 1.59028e-015 3.18055e-015 -0 -0.0128093 0.00232005 8.16932e-005 1.59028e-015 3.18055e-015 -3.18055e-015 1.59028e-015 3.18055e-015 -0 -0.0160549 0.0029957 0.000864015 -1.59028e-015 0 -0 1.59028e-015 3.18055e-015 -0 -0.0126194 0.00313337 0.00283278 1.59028e-015 -1.27222e-014 -9.54166e-015 1.59028e-015 3.18055e-015 -0 0 3.18055e-015 -0 3.53113e-031 6.36111e-015 -3.18055e-015 8.50063 -10.1604 28.5198 0.0407675 2.71201 -22.1538 -13.1533 -74.0153 -75.917 118.057 82.4958 -44.8475 -1.98785e-015 9.93923e-016 -6.36111e-015 4.25002e-007 -7.5362e-007 -2.33594e-008 -5.96354e-016 0 3.18055e-015 -1.98785e-015 9.93923e-016 -6.36111e-015 0.0129953 0.00232435 -8.86065e-005 1.98785e-016 7.95139e-016 6.36111e-015 -1.98785e-015 9.93923e-016 -6.36111e-015 0.0163269 0.00303206 -0.000872107 9.93923e-017 -7.95139e-016 -3.18055e-015 -1.98785e-015 9.93923e-016 -6.36111e-015 0.0145601 0.00367169 -0.00325321 5.96354e-016 1.98785e-016 3.18055e-015 -1.98785e-015 9.93923e-016 -6.36111e-015 4.25002e-007 -7.5362e-007 -2.33594e-008 -5.96354e-016 0 3.18055e-015 -10.8256 -25.7553 -13.9491 54.0068 55.2256 -49.0233 -18.6312 34.6054 12.9506 -3.2705e-007 9.38543e-007 -1.62951e-006 -0.681977 -36.1303 -0.883438 -5.79651 5.14789 3.19411 7.28502 27.3151 -0.38271 -3.61344e-006 -1.04532e-005 1.44036e-005 
-4.09017 -3.15204 -38.5667 -89.9728 86.6182 -0.0290622 2.95039 -1.23237 -1.02743 5.88036 -2.51577 -1.9908 5.88036 -2.51577 -1.99081 -12.4185 4.64811 7.62611 0.128404 6.17822 -0.365435 74.6744 24.1445 -69.5099 117.742 -32.7639 26.6969 -20.2809 -53.8827 27.0708 45.7921 -44.1385 84.1237 2.92837e-006 -1.06817e-006 -2.92263e-007 -1.98785e-016 3.18055e-015 1.59028e-015 -9.93923e-016 0 1.19271e-015 2.92837e-006 -1.06817e-006 -2.92263e-007 -0.0127891 0.00231952 8.63361e-005 2.5842e-015 9.54166e-015 -3.97569e-016 2.92837e-006 -1.06817e-006 -2.92263e-007 -0.0160096 0.00298376 0.000854696 1.98785e-015 0 -1.98785e-015 2.92837e-006 -1.06817e-006 -2.92263e-007 -0.0126225 0.00312488 0.00283069 1.32417e-031 -6.36111e-015 1.19271e-015 2.92837e-006 -1.06817e-006 -2.92263e-007 -1.98785e-016 3.18055e-015 1.59028e-015 -9.93923e-016 0 1.19271e-015 7.54153 -10.5349 27.6673 -6.38815 3.32205 -21.7966 -16.0098 -68.6132 -74.9329 97.5909 77.4746 -29.8255 -3.97569e-016 3.97569e-016 -0 -1.98785e-016 0 -3.18055e-015 1.98785e-016 0 -0 -3.97569e-016 3.97569e-016 -0 0.0129358 0.0023156 -8.69495e-005 -1.78906e-015 -7.95139e-016 -3.18055e-015 -3.97569e-016 3.97569e-016 -0 0.0163123 0.00303247 -0.0008734 -1.98785e-016 0 3.18055e-015 -3.97569e-016 3.97569e-016 -0 0.014589 0.00368047 -0.00326386 -5.96354e-016 -7.95139e-016 -0 -3.97569e-016 3.97569e-016 -0 -1.98785e-016 0 -3.18055e-015 1.98785e-016 0 -0 -8.67672 -22.9114 -11.5906 46.3634 53.0857 -42.2687 -15.6251 32.0103 10.6168 -6.38258e-007 -1.03504e-006 -1.53331e-006 -0.84922 -32.1387 -0.875595 -5.31733 4.33807 2.85673 6.86427 25.2947 -0.20135 3.39875e-006 3.54793e-007 -3.33405e-007 
